<mxfile host="app.diagrams.net" modified="2024-05-06T06:22:51.158Z" agent="Mozilla/5.0 (Windows NT 10.0; Win64; x64) AppleWebKit/537.36 (KHTML, like Gecko) Chrome/124.0.0.0 Safari/537.36" etag="B_6uN_DZpuYPMUWd8T7X" version="24.3.1" type="github">
  <diagram name="第 1 页" id="_73NamynOgI10VYN7bFE">
    <mxGraphModel dx="1434" dy="746" grid="1" gridSize="10" guides="1" tooltips="1" connect="1" arrows="1" fold="1" page="1" pageScale="1" pageWidth="827" pageHeight="1169" math="0" shadow="0">
      <root>
        <mxCell id="0" />
        <mxCell id="1" parent="0" />
        <mxCell id="MU1ah1lOfn7ixWe4w-mj-3" value="" style="edgeStyle=orthogonalEdgeStyle;rounded=0;orthogonalLoop=1;jettySize=auto;html=1;" edge="1" parent="1" source="MU1ah1lOfn7ixWe4w-mj-1" target="MU1ah1lOfn7ixWe4w-mj-2">
          <mxGeometry relative="1" as="geometry" />
        </mxCell>
        <mxCell id="MU1ah1lOfn7ixWe4w-mj-1" value="" style="strokeWidth=2;html=1;shape=mxgraph.flowchart.start_1;whiteSpace=wrap;" vertex="1" parent="1">
          <mxGeometry x="360" y="250" width="100" height="60" as="geometry" />
        </mxCell>
        <mxCell id="MU1ah1lOfn7ixWe4w-mj-2" value="" style="whiteSpace=wrap;html=1;strokeWidth=2;" vertex="1" parent="1">
          <mxGeometry x="350" y="390" width="120" height="60" as="geometry" />
        </mxCell>
      </root>
    </mxGraphModel>
  </diagram>
</mxfile>
